PathFileType	4	(X/Y/Z)	../Python\running\Running01\task.trc
DataRate	CameraRate	NumFrames	NumMarkers	Units	OrigDataRate	OrigDataStartFrame	OrigNumFrames
200.000000	200.000000	5	30	mm	200.000000	21	169
Frame#	Time	C7			RBAK			CLAV			STRN			RASI			LASI			RTH2			RTH3			RTB2			RHEE			RD5M			RTOE			LTH2			LTH3			LTB2			LTB3			LHEE			LTOE			LD5M			RPSI			RTH1			RTB1			RTB3			LPSI			PE03			T10			PE01			PE02			LTH1			LTB1			
		X1	Y1	Z1	X2	Y2	Z2	X3	Y3	Z3	X4	Y4	Z4	X5	Y5	Z5	X6	Y6	Z6	X7	Y7	Z7	X8	Y8	Z8	X9	Y9	Z9	X10	Y10	Z10	X11	Y11	Z11	X12	Y12	Z12	X13	Y13	Z13	X14	Y14	Z14	X15	Y15	Z15	X16	Y16	Z16	X17	Y17	Z17	X18	Y18	Z18	X19	Y19	Z19	X20	Y20	Z20	X21	Y21	Z21	X22	Y22	Z22	X23	Y23	Z23	X24	Y24	Z24	X25	Y25	Z25	X26	Y26	Z26	X27	Y27	Z27	X28	Y28	Z28	X29	Y29	Z29	X30	Y30	Z30	

22	0.105	-1045.465698242188	1311.6376953125	118.7829666137696	-1064.724365234375	1242.431640625	256.9436340332032	-937.5258178710942	1207.587768554688	102.5042114257813	-913.5593872070317	1022.80224609375	125.4258193969727	-974.3322753906255	821.9431152343755	287.6295776367189	-966.803833007813	836.313598632813	64.32534027099612	-1115.344482421875	461.0495605468752	303.3359985351564	-1075.613403320313	507.8139953613284	308.7337951660157	-1329.125854492188	354.594451904297	263.3533630371095	-1531.917724609375	317.2544250488282	147.5754852294922	-1538.247314453126	187.9783477783204	244.3924713134767	-1512.051635742188	151.8911437988282	209.5835418701173	-930.8724975585942	531.6963500976565	38.23425674438478	-886.1127319335942	594.0906982421877	23.07891273498536	-895.620483398438	203.2146606445314	70.23950195312503	-855.3439941406255	232.1349639892579	68.29654693603518	-931.5756835937505	33.09485244750978	135.7281646728516	-739.6133422851565	27.9111957550049	125.9467315673829	-781.856079101563	13.02334213256837	79.20436859130862	-1154.089477539063	901.7778320312505	229.7675170898439	-1113.883911132813	539.6841430664065	317.7777404785157	-1273.32763671875	327.6517028808595	269.2727050781251	-1347.957763671875	309.3343505859376	250.4755706787111	-1158.818115234375	895.5731811523442	144.5026245117188	-1170.079223632813	878.0518188476567	154.9273223876954	-1126.705932617188	1034.478149414063	183.014633178711	-1142.09619140625	930.958374023438	185.8130645751954	-1174.283203125	875.8581542968755	205.4027404785157	-935.581420898438	590.2241210937502	19.51940345764161	-890.5512695312505	280.8290100097657	52.60866165161136	
23	0.11	-1027.966918945313	1309.351318359375	117.2660522460938	-1048.262939453125	1240.724243164063	255.7022705078126	-920.1161499023442	1204.289428710938	102.1783142089844	-896.6699218750005	1018.738403320313	125.9859008789063	-957.0800170898442	819.8234252929692	286.9887695312501	-950.9577026367192	834.1196289062505	63.11038589477542	-1090.360229492188	456.860290527344	304.9397583007814	-1051.44775390625	504.4249572753909	309.8386535644532	-1302.251708984375	353.9790344238282	263.8779907226564	-1506.082885742188	318.0717163085939	147.042221069336	-1510.806396484375	190.3679199218751	245.9705505371095	-1484.46923828125	153.8209075927735	212.0941162109376	-915.4918823242192	530.194519042969	37.64890670776369	-870.461303710938	592.3421020507815	23.06344604492188	-888.5121459960942	203.1059112548829	70.82534790039065	-847.1459350585942	230.3389282226564	69.07537841796878	-930.8770141601567	32.99932861328126	136.6190643310547	-739.152038574219	27.78174018859865	126.2103347778321	-781.5856323242192	13.31111431121827	79.20646667480472	-1138.253295898438	897.3654174804692	230.095916748047	-1090.2685546875	535.6387329101565	319.0046691894532	-1246.912963867188	326.1200256347657	270.760711669922	-1321.7099609375	308.8154907226564	251.4640960693361	-1143.09912109375	892.2697143554692	144.9219970703126	-1154.442749023438	874.355102539063	155.4092102050782	-1109.966064453125	1032.213500976563	182.8133087158204	-1126.843139648438	927.2321166992192	186.528060913086	-1158.194213867188	871.6738281250005	205.8795318603517	-919.7418823242192	588.7610473632815	19.24620628356934	-880.4050292968755	280.3844604492189	53.08625793457034	
24	0.115	-1010.453979492188	1307.10595703125	115.8245086669922	-1031.862060546875	1239.015869140625	254.4824523925782	-902.7067260742192	1200.924438476563	101.9529113769532	-879.799682617188	1014.558227539063	126.6002044677735	-939.9533691406255	817.6216430664067	286.3187866210939	-935.2636108398442	831.9690551757817	61.87765121459964	-1065.063110351563	452.8853759765627	306.4308471679689	-1027.045043945313	501.2573852539065	310.8858337402345	-1274.860229492188	353.1020507812501	264.5947265625001	-1479.7333984375	318.3935852050782	146.839096069336	-1482.529296875	192.1321411132814	247.6662902832032	-1456.072631835938	155.2353973388672	214.6346282958986	-900.758178710938	528.568054199219	37.09395980834962	-855.3158569335942	590.2437133789065	22.83502769470216	-881.7844238281255	203.1894073486329	70.97480010986331	-839.3972167968755	228.6837615966798	69.61454772949222	-930.5815429687505	33.100643157959	137.2359161376954	-739.058532714844	27.90620231628419	126.3512878417969	-781.6303100585942	13.73677158355714	79.18226623535159	-1122.495727539063	892.961547851563	230.5647430419923	-1066.445190429688	531.7569580078127	320.1256713867189	-1219.812744140625	324.3863220214845	272.1277770996095	-1294.846557617188	308.0189514160157	252.5654296875001	-1127.4755859375	889.1618652343755	145.4579162597657	-1138.92822265625	870.8383789062505	155.9932403564454	-1093.257568359375	1029.972900390625	182.6614379882813	-1111.703125	923.6121215820317	187.4478302001954	-1142.200805664063	867.5725708007817	206.4418334960939	-904.3986816406255	587.1584472656252	18.91870880126954	-870.6246948242192	280.0545349121095	53.28431320190433	
25	0.12	-992.9289550781255	1304.934448242188	114.467140197754	-1015.521911621094	1237.337158203125	253.2857971191407	-885.3018188476567	1197.5419921875	101.8334503173829	-862.9482421875005	1010.331604003907	127.2704772949219	-922.949096679688	815.369995117188	285.6213378906251	-919.7140502929692	829.9008178710942	60.64251708984378	-1039.417358398438	449.2065734863284	307.7897033691407	-1002.404296875	498.4039611816409	311.8767395019532	-1246.972412109375	351.9570922851564	265.5043945312501	-1452.90869140625	318.2126464843751	146.9969635009766	-1453.458862304688	193.2319335937501	249.4676971435548	-1426.892333984375	156.1022186279297	217.1630401611329	-886.6771850585942	526.8208618164065	36.56357955932619	-840.6745605468755	587.835632324219	22.43421936035157	-875.3796386718755	203.3090209960939	70.73714447021487	-832.074096679688	227.0880737304689	69.9378356933594	-930.571655273438	33.35712051391603	137.6067504882813	-739.137634277344	28.10623931884767	126.455436706543	-781.8618164062505	14.19885730743409	79.15000915527347	-1106.780151367188	888.668579101563	231.1835327148439	-1042.427124023438	528.1013183593752	321.1241455078126	-1192.031005859375	322.4503784179689	273.338592529297	-1267.37646484375	306.9390563964845	253.7501220703126	-1111.924682617188	886.3182983398442	146.1178894042969	-1123.507934570313	867.5806274414067	156.6936035156251	-1076.580810546875	1027.798461914063	182.5528564453126	-1096.61572265625	920.181030273438	188.5684509277344	-1126.273315429688	863.6482543945317	207.1035308837892	-889.5693969726567	585.421081542969	18.53332901000977	-861.227416992188	279.698699951172	53.21399688720706	
26	0.125	-975.3948364257817	1302.86865234375	113.2025146484376	-999.2423706054692	1235.719482421875	252.1130218505861	-867.9057006835942	1194.194213867188	101.8252105712891	-846.1154174804692	1006.13232421875	127.9975357055665	-906.0604858398442	813.103881835938	284.8985900878907	-904.298950195313	827.9474487304692	59.41999053955081	-1013.398986816407	445.897888183594	309.0023803710939	-977.5368041992192	495.951110839844	312.8164978027345	-1218.616088867188	350.5489807128907	266.5993652343751	-1425.651489257813	317.5167236328126	147.5396270751954	-1423.641235351563	193.6326446533204	251.3620605468751	-1396.961181640625	156.3906402587891	219.6397399902345	-873.2396850585942	524.9620361328127	36.04861068725587	-826.5249633789067	585.1726074218752	21.90676879882813	-869.248657226563	203.3088836669923	70.19995880126956	-825.156860351563	225.4666900634767	70.08851623535159	-930.7434082031255	33.72712707519533	137.7741088867188	-739.245544433594	28.25833892822267	126.5820236206055	-782.1796264648442	14.62415313720704	79.119010925293	-1091.069458007813	884.590209960938	231.9523010253907	-1018.237365722657	524.7293701171877	321.9887084960939	-1163.594360351563	320.3316650390626	274.3777160644532	-1239.318481445313	305.5810546875001	254.9914398193361	-1096.422119140625	883.796997070313	146.9014129638672	-1108.151733398438	864.6516113281255	157.5167846679688	-1059.93505859375	1025.730590820313	182.4786224365235	-1081.515625	917.0148925781255	189.871810913086	-1110.380615234375	859.9906616210942	207.8717193603517	-875.2617187500005	583.5603027343752	18.08913040161134	-852.233520507813	279.1762084960939	52.90812301635745	
